<svg width="415" height="77" viewBox="0 0 415 77" xmlns="http://www.w3.org/2000/svg"><title>co-logo</title><g fill="#FFF"><path d="M13.902 53.161a38.11 38.11 0 0 1-3.025-14.932C10.877 17.116 27.99 0 49.105 0s38.23 17.116 38.23 38.23a38.108 38.108 0 0 1-3.027 14.931h330.126v2.001H83.389C77.145 67.782 64.14 76.46 49.106 76.46c-15.034 0-28.04-8.678-34.285-21.297H0v-2h13.902zm35.204 21.321c20.02 0 36.252-16.23 36.252-36.253 0-20.02-16.232-36.253-36.253-36.253S12.853 18.208 12.853 38.23s16.23 36.253 36.252 36.253z"/><path d="M47.578 6.863h1.103c.251 0 .457.206.457.458v7.476a.459.459 0 0 1-.457.458H36.51a.459.459 0 0 1-.457-.458V7.321c0-.252.206-.458.457-.458h1.103c.251 0 .457.206.457.458v5.458c0 .252.206.457.458.457h2.601a.458.458 0 0 0 .458-.457V7.321c0-.252.206-.458.457-.458h1.103c.251 0 .457.206.457.458v5.458c0 .252.206.457.458.457h2.601a.458.458 0 0 0 .458-.457V7.321a.46.46 0 0 1 .458-.458zM29.1 23.578h-1.513a.458.458 0 0 0-.457.457v11.774c0 .252.206.458.457.458H29.1c.252 0 .457.205.457.457v1.104a.458.458 0 0 1-.457.456H18.675a.459.459 0 0 1-.458-.456v-1.104a.46.46 0 0 1 .458-.457h1.513a.46.46 0 0 0 .458-.459V24.036a.458.458 0 0 0-.458-.457h-1.513a.46.46 0 0 1-.458-.459v-1.102a.46.46 0 0 1 .458-.459H29.1a.46.46 0 0 1 .457.459v1.102a.459.459 0 0 1-.457.459zm-3.989 12.23V24.036a.458.458 0 0 0-.457-.457h-1.53a.458.458 0 0 0-.459.457V35.81a.46.46 0 0 0 .458.458h1.531a.458.458 0 0 0 .457-.459zm23.57-9.822a.46.46 0 0 1 .458.458v11.318a.459.459 0 0 1-.457.458h-1.103a.46.46 0 0 1-.458-.458v-9.3a.459.459 0 0 0-.458-.457h-.755a.459.459 0 0 0-.458.457v9.3a.459.459 0 0 1-.457.458h-1.104a.459.459 0 0 1-.457-.458v-9.3a.459.459 0 0 0-.458-.457h-.756a.459.459 0 0 0-.458.457v9.3a.459.459 0 0 1-.457.458H40.2a.459.459 0 0 1-.457-.458v-9.3a.46.46 0 0 0-.458-.457h-.756a.459.459 0 0 0-.458.457v9.3a.459.459 0 0 1-.457.458H36.51a.459.459 0 0 1-.457-.458V26.444c0-.252.206-.458.457-.458h4.619a.458.458 0 0 0 .458-.457v-1.495a.458.458 0 0 0-.458-.457h-4.602a.46.46 0 0 1-.458-.458v-1.103a.46.46 0 0 1 .458-.458h12.138a.46.46 0 0 1 .458.458v1.103a.46.46 0 0 1-.458.458h-4.602a.458.458 0 0 0-.458.457v1.495c0 .252.206.457.458.457h4.619zm-20.335-14.92a4.552 4.552 0 1 1-9.104 0 4.552 4.552 0 0 1 9.104 0zm386.088 33.507c0 .99-.72 1.725-1.581 1.725-.862 0-1.581-.735-1.581-1.725 0-.99.719-1.724 1.58-1.724.863 0 1.582.734 1.582 1.724zm-25.617-6.124h4.096l-2.084-10.415-2.012 10.415zm15.09 7.005h1.437c3.054 0 3.952-3.704 4.312-7.628h.538v8.361H391.87v-.513l.754-.147c1.545-.294 1.58-.733 1.15-2.934l-.683-3.3h-4.42l-.467 2.493c-.54 2.824-.25 3.52.828 3.741l.754.147v.513h-4.995v-.513l.612-.184c.969-.293 1.22-.88 1.724-3.374l4.383-21.344h1.078l4.599 22.041c.468 2.274.646 2.75 1.94 2.75 1.114 0 1.509-.587 1.509-1.686V23.193c0-1.027-.323-1.357-1.042-1.54l-.79-.22v-.514h7.113v.55l-.97.22c-.718.147-1.041.477-1.041 1.504v22.261zM372.289 21.58l-.502-.147v-.513h4.707l6.43 16.65V25.576c0-2.714.073-3.668-1.832-3.998l-.61-.147v-.513h5.317v.513l-.504.147c-1.545.367-1.436 1.65-1.436 4.218v20.39h-1.15l-8.047-20.207v15.55c0 2.97 0 3.814 2.298 4.144v.513h-5.173v-.513l.647-.11c1.329-.258 1.293-1.578 1.293-4.255V23.78c-.611-1.284-.862-1.98-1.438-2.2zm-9.736 11.37h1.186c2.01 0 3.017-.55 3.017-5.429 0-4.878-1.33-5.868-2.765-5.868h-1.438v11.296zm-5.065 12.725l.79-.22c.718-.184 1.042-.55 1.042-1.577V23.193c0-1.21-.54-1.65-1.797-1.65-1.581 0-1.976.733-1.976 2.823v15.917c0 3.961-1.365 6.087-4.707 6.087-3.45 0-5.461-2.126-5.461-5.978V23.193c0-1.027-.252-1.357-.97-1.54l-.79-.22v-.514h7.15v.513l-.971.22c-.79.184-1.113.478-1.113 1.504V40.65c0 3.558 1.006 4.475 2.838 4.475 2.155 0 3.055-1.247 3.055-4.84v-14.6c0-3.08-.037-3.813-1.331-4.107l-.682-.147v-.513h11.785c3.054 0 5.892 1.98 5.892 6.125 0 3.19-1.473 5.427-4.455 6.234 3.269.623 3.269 2.2 3.592 6.418l.216 3.227c.108 1.797.18 2.201.683 2.201.539 0 .754-1.247.754-2.457v-.624h.61v.843c0 2.017-.43 3.448-2.48 3.448-2.01 0-2.944-1.174-3.087-5.39l-.181-4.695c-.071-2.238-.61-2.568-1.652-2.568h-1.69v10.196c0 1.026.324 1.43 1.043 1.613l.79.184v.513h-6.897v-.513zM336.972 21.58c-1.797 0-2.694 1.467-2.694 11.808 0 10.673.826 12.176 2.694 12.176 1.868 0 2.73-1.503 2.73-12.249 0-10.268-.862-11.735-2.73-11.735zm0 24.791c-4.203 0-6.252-5.794-6.252-12.835 0-7.005 1.977-12.799 6.252-12.799 4.239 0 6.287 5.794 6.287 12.8 0 7.04-1.94 12.834-6.287 12.834zm-8.371-6.014c0 3.924-1.94 5.978-4.923 5.978-2.694 0-4.275-2.238-4.24-4.695.037-1.907 1.402-2.86 2.516-2.713.79.11 1.58.696 1.473 1.98-.108 1.834-2.048 1.761-2.12 2.897-.071.697.826 1.724 1.977 1.724 2.01 0 2.01-2.604 2.01-4.584V23.156c0-1.026-.322-1.32-1.113-1.504l-.897-.22v-.513h7.078v.513l-.791.22c-.72.184-.97.514-.97 1.541v17.163zm-19.728 3.521c0 1.136.324 1.356 1.042 1.54l1.114.257v.513h-7.402v-.513l.935-.22c.719-.184 1.042-.55 1.042-1.577V21.652h-.791c-2.228 0-3.125 3.704-3.377 7.628h-.54v-8.36h12.684v8.36h-.54c-.251-3.924-1.15-7.628-3.377-7.628h-.79v22.225zm-16.06 1.577h2.479c3.234 0 3.845-3.74 4.276-7.628h.539v8.361H287.71v-.513l.79-.22c.719-.184 1.043-.55 1.043-1.577V23.23c0-1.026-.324-1.393-1.043-1.577l-.79-.22v-.513h12.036v8.361h-.54c-.394-3.924-1.148-7.628-3.915-7.628h-2.48v11.04l1.15-.038c1.545-.109 2.12-1.467 2.516-4.657h.539v10.195h-.54c-.322-3.997-.934-4.62-2.55-4.73l-1.114-.037v12.03zm-13.33 0h2.48c3.234 0 3.844-3.74 4.276-7.628h.539v8.361h-12.396v-.513l.79-.22c.719-.184 1.042-.55 1.042-1.577V23.23c0-1.026-.323-1.393-1.042-1.577l-.79-.22v-.513h12.036v8.361h-.54c-.394-3.924-1.15-7.628-3.915-7.628h-2.48v11.04l1.15-.038c1.545-.109 2.12-1.467 2.516-4.657h.539v10.195h-.54c-.322-3.997-.934-4.62-2.551-4.73l-1.113-.037v12.03zm-14.406-12.506h1.185c2.012 0 3.019-.55 3.019-5.428s-1.33-5.868-2.767-5.868h-1.437v11.296zm-5.067 12.726l.79-.22c.72-.184 1.043-.55 1.043-1.577V23.193c0-1.027-.323-1.357-1.042-1.54l-.791-.22v-.514h6.862c3.055 0 5.893 1.98 5.893 6.125 0 3.19-1.473 5.427-4.455 6.234 3.27.623 3.27 2.2 3.593 6.418l.216 3.227c.107 1.797.179 2.201.682 2.201.539 0 .755-1.247.755-2.457v-.624h.61v.843c0 2.017-.431 3.448-2.478 3.448-2.013 0-2.946-1.174-3.091-5.39l-.18-4.695c-.071-2.238-.61-2.568-1.652-2.568h-1.688v10.196c0 1.026.323 1.43 1.042 1.613l.79.184v.513h-6.9v-.513zm-5.497-1.797c0 1.026.324 1.393 1.042 1.577l.935.22v.513h-7.222v-.513l.935-.22c.717-.184 1.04-.55 1.04-1.577V21.652h-.79c-2.227 0-3.125 3.704-3.376 7.628h-.54v-8.36h12.683v8.36h-.54c-.25-3.924-1.148-7.628-3.376-7.628h-.791v22.225zm-13.222 2.457c-2.083 0-2.801-1.467-3.484-1.467-.395 0-.862.11-1.222 1.32h-.431v-8.36h.539c.43 4.73 2.156 7.7 4.563 7.7 1.616 0 2.73-1.504 2.73-4.218 0-5.72-8.011-8.177-8.011-14.522 0-3.41 1.725-6.015 4.778-6.015 1.976 0 2.408 1.321 3.234 1.321.467 0 .79-.368.969-1.174h.432v8.361h-.54c-.431-4.217-1.544-7.7-4.131-7.7-1.797 0-2.155 1.833-2.155 3.08 0 5.464 8.012 7.335 8.012 14.962 0 3.888-2.084 6.712-5.283 6.712zm-18.002-.88h1.437c3.055 0 3.952-3.704 4.312-7.628h.539v8.361h-11.39v-.513l.79-.22c.72-.184 1.043-.55 1.043-1.577V23.193c0-1.027-.323-1.357-1.042-1.54l-.791-.22v-.514h7.114v.55l-.97.22c-.718.147-1.042.477-1.042 1.504v22.261zm-27.305-7.005h4.096l-2.084-10.415-2.012 10.415zm15.126 7.005h1.436c3.054 0 3.952-3.704 4.312-7.628h.539v8.361h-18.36v-.513l.754-.147c1.546-.294 1.546-.733 1.15-2.934l-.682-3.3h-4.42l-.467 2.493c-.54 2.824-.25 3.52.828 3.741l.754.147v.513h-4.995v-.513l.612-.184c.969-.293 1.22-.88 1.724-3.374l4.383-21.344h1.078l4.599 22.041c.467 2.274.683 2.75 1.975 2.75 1.115 0 1.51-.587 1.51-1.686V23.193c0-1.027-.323-1.357-1.042-1.54l-.791-.22v-.514h7.115v.55l-.971.22c-.718.147-1.041.477-1.041 1.504v22.261zm-35.14-21.16c-.466-2.164-.753-2.494-1.435-2.678l-.683-.184v-.513h6.718v.513l-.538.111c-1.151.257-1.042 1.43-.72 3.007l2.839 14.376 2.084-11.443-.755-3.924c-.287-1.393-.395-1.834-1.113-2.016l-.467-.11v-.514h6.574v.513l-.79.147c-1.186.221-1.006 1.54-.72 2.971l2.732 14.376 2.695-13.606c.503-2.824.25-3.52-.827-3.74l-.754-.148v-.513h4.922v.513l-.683.184c-.862.22-1.078.917-1.581 3.374l-4.383 21.344h-.934l-3.377-16.65-3.054 16.65h-1.185l-4.564-22.04zm-14.974 21.16h2.479c3.233 0 3.845-3.74 4.275-7.628h.539v8.361h-12.395v-.513l.79-.22c.719-.184 1.043-.55 1.043-1.577V23.23c0-1.026-.324-1.393-1.042-1.577l-.791-.22v-.513h12.036v8.361h-.54c-.394-3.924-1.148-7.628-3.915-7.628h-2.48v11.04l1.15-.038c1.546-.109 2.12-1.467 2.516-4.657h.539v10.195h-.54c-.323-3.997-.934-4.62-2.55-4.73l-1.114-.037v12.03zm-21.521.22l.79-.22c.719-.184 1.042-.55 1.042-1.577V23.193c0-1.027-.323-1.357-1.042-1.54l-.79-.22v-.514h7.006v.513l-.826.22c-.683.184-1.078.478-1.078 1.504v9.646H150v-9.646c0-1.026-.394-1.32-1.077-1.504l-.826-.22v-.513h7.006v.513l-.791.22c-.718.184-1.042.514-1.042 1.541V43.84c0 1.027.324 1.43 1.042 1.614l.79.22v.513h-7.005v-.513l.826-.184c.683-.184 1.077-.587 1.077-1.613V33.644h-5.424v10.233c0 1.026.395 1.43 1.078 1.613l.826.184v.513h-7.006v-.513zm-5.497-1.797c0 1.136.323 1.356 1.042 1.54l1.113.257v.513h-7.401v-.513l.934-.22c.719-.184 1.042-.55 1.042-1.577V21.652h-.791c-2.227 0-3.125 3.704-3.377 7.628H126v-8.36h12.684v8.36h-.538c-.252-3.924-1.15-7.628-3.378-7.628h-.79v22.225zm202.754 16.079h.57v1.894h-4.428v-1.867h.57v1.324h1.351V59.36h.57v1.948h1.367v-1.351zm-.678 6.828h-.533v-2.252h-.799v2.624h-.569v-2.624h-.763v3.195h-.57V63.99h1.764c.178-.242.304-.534.377-.875h-2.392v-.538h5.303v.538h-2.369c-.086.434-.182.726-.288.875h2.2v2.692a.885.885 0 0 1-.07.47.62.62 0 0 1-.276.306c-.12.063-.268.097-.442.102a30.75 30.75 0 0 1-.528.006l-.183-.561c.13.013.244.018.345.018.39 0 .583-.084.583-.252v-2.238h-.79v2.252zm-5.723-7.124l.475-.247c.3.314.556.785.772 1.413l-.534.225c-.124-.557-.36-1.02-.713-1.391zm-.324 2.866l.49-.174c.338.627.506 1.443.506 2.445 0 .146-.004.296-.013.448l-.56.032c.017-.236.026-.46.026-.67 0-.842-.15-1.536-.449-2.081zm-.264-.704h2.8v-.543h-2.8v.543zm2.754 4.078l-2.453.727-.44-.507c.528-.093.991-.2 1.386-.323.555-1.194.813-2.348.771-3.463l.552.102a7.875 7.875 0 0 1-.7 3.16c.201-.036.495-.11.884-.22v.524zm8.553.543l.313-.403a3.388 3.388 0 0 1 1.616.722c.014 0 .055.025.121.076-.07.105-.183.248-.341.43-.548-.422-1.117-.696-1.709-.825zm3.4-1.584h.597v.418h1.579v.538h-1.579v1.297a.685.685 0 0 1-.213.41c-.118.11-.301.17-.546.18-.245.01-.504.016-.775.016l-.211-.588.928.026c.072 0 .126-.022.164-.069.038-.046.056-.077.056-.092v-1.18h-4.137v-.538h4.137v-.418zm-.709-3.83h2.337v2.646h-2.337v.516c.592-.012 1.11-.033 1.552-.063l-.201-.175.434-.242c.348.221.678.593.993 1.113a5.621 5.621 0 0 1-.463.277 2.846 2.846 0 0 0-.31-.488l-2.157.054-3.033.102-.26-.56h1.892l.957-.018v-.516h-2.316V61.03h2.316v-.404h-2.482v-.538h2.482v-.744h.596v.744h2.885v.538h-2.885v.404zm.001 2.104h1.736v-.539h-1.736v.54zm0-1.046h1.736v-.516h-1.736v.516zm-2.316 1.046h1.719v-.539h-1.719v.54zm0-1.046h1.719v-.516h-1.719v.516zm-1.44 5.662h-.57v-5.047h-.018c-.095.35-.335.781-.717 1.296a6.802 6.802 0 0 1-.535-.296c.019-.039.062-.107.13-.202.706-.978 1.291-2.367 1.755-4.168.072.024.252.097.543.22l-.588 1.912v6.285zm15.006-2.859h-1.704c.096.291.352.633.769 1.028.418.395.848.69 1.295.885l-.329.484c-1.241-.706-2.016-1.505-2.328-2.397h-.008v2.8h-.57v-2.8h-.018c-.353.922-1.124 1.703-2.315 2.343l-.35-.489c.99-.44 1.697-1.058 2.122-1.854h-1.763v-.542h2.324v-.727h-1.513v-2.858h-.838v-.543h.838v-.91h.566v.91h2.418v-.91h.57v.91h.834v.543h-.834v2.858h-1.471v.727h2.305v.542zm-3.822-1.812h2.418v-.946h-2.418v.946zm0-1.449h2.418v-.866h-2.418v.866zm-1.193 4.235l-.35.422a3.703 3.703 0 0 0-.687-.597c-.377.686-.885 1.35-1.525 1.992l-.48-.385c.595-.515 1.107-1.164 1.535-1.948-.441-.295-.853-.498-1.239-.605.285-.69.536-1.696.753-3.015h-.892v-.543h.992c.08-.52.15-1.126.21-1.817l.543.107-.201 1.71h1.323c-.081 1.708-.341 3.03-.781 3.961.294.213.559.452.799.718zm-.588-4.136h-.852a20.915 20.915 0 0 1-.664 2.72c.344.115.62.247.83.394.409-.883.638-1.92.686-3.114zm11.757 5.912v-6.393h.721v6.393h-.721zm1.914-4.722h.703v.822c.158-.256.365-.473.62-.653.257-.18.589-.27.997-.27.286 0 .54.046.763.137.222.092.41.22.566.389.156.167.274.366.356.597.083.232.124.488.124.768v2.932h-.704v-2.765c0-.438-.112-.787-.338-1.043-.225-.257-.548-.385-.968-.385a1.46 1.46 0 0 0-.561.106 1.31 1.31 0 0 0-.75.773 1.664 1.664 0 0 0-.105.605v2.709h-.703v-4.722zm5.104 4.722V62.92h.703v4.722h-.703zm-.046-5.755v-.776h.804v.776h-.804zm3.279 5.837a1.84 1.84 0 0 1-.53-.073 1.093 1.093 0 0 1-.425-.233 1.065 1.065 0 0 1-.279-.414 1.65 1.65 0 0 1-.1-.611v-2.843h-.657v-.63h.656v-1.425h.703v1.425h1.499v.63h-1.499v2.758c0 .293.074.497.22.612.145.116.339.174.575.174a1.41 1.41 0 0 0 .685-.174v.603a1.546 1.546 0 0 1-.387.15 1.919 1.919 0 0 1-.462.05zm1.433-.082V62.92h.703v4.722h-.703zm-.046-5.755v-.776h.804v.776h-.804zm3.516 5.855c-.286 0-.54-.046-.763-.138a1.577 1.577 0 0 1-.566-.387 1.74 1.74 0 0 1-.357-.599 2.277 2.277 0 0 1-.123-.767v-2.93h.704v2.762c0 .44.113.788.337 1.044.226.256.549.384.969.384.2 0 .388-.035.562-.104.174-.07.323-.17.448-.303a1.47 1.47 0 0 0 .297-.47c.072-.184.109-.386.109-.605V62.92h.695v4.721h-.695v-.822a2.205 2.205 0 0 1-.621.653c-.256.18-.588.27-.996.27zm3.32-4.822h.702v.794a3.87 3.87 0 0 1 .261-.338 1.593 1.593 0 0 1 .735-.483c.153-.05.33-.074.53-.074.383 0 .7.09.95.27.25.18.438.403.566.67.171-.261.39-.483.653-.665.265-.183.602-.275 1.01-.275.548 0 .977.169 1.287.507.311.338.466.803.466 1.393v2.923h-.703v-2.765c0-.457-.108-.81-.324-1.057-.216-.247-.516-.371-.9-.371-.176 0-.344.033-.503.097a1.163 1.163 0 0 0-.415.283 1.364 1.364 0 0 0-.283.463 1.73 1.73 0 0 0-.105.622v2.728h-.695v-2.783c0-.446-.107-.792-.324-1.04-.216-.246-.513-.37-.89-.37a1.214 1.214 0 0 0-.936.42 1.493 1.493 0 0 0-.279.473c-.067.18-.1.38-.1.599v2.7h-.704v-4.72zm10.814-1.671h.73l2.33 3.488 2.33-3.488h.73v6.393h-.722v-5.179l-2.33 3.425h-.035l-2.33-3.415v5.169h-.703v-6.393zm7.93 4.986c.099.195.224.359.375.493a1.64 1.64 0 0 0 1.106.41c.329 0 .61-.06.845-.182a2.51 2.51 0 0 0 .644-.483l.439.392a2.885 2.885 0 0 1-.814.644c-.305.16-.681.242-1.132.242-.323 0-.628-.06-.914-.178a2.246 2.246 0 0 1-.75-.503 2.38 2.38 0 0 1-.506-.78 2.625 2.625 0 0 1-.187-1.005c0-.341.057-.662.169-.964.113-.3.269-.562.47-.785.202-.221.44-.397.717-.525.278-.128.58-.192.91-.192.346 0 .657.066.93.197.276.13.507.309.695.534.189.225.333.49.43.795.097.304.146.63.146.976v.11c0 .037-.003.083-.01.137h-3.744c.024.25.085.472.182.667zm2.85-1.233a2.19 2.19 0 0 0-.136-.607 1.702 1.702 0 0 0-.297-.507 1.356 1.356 0 0 0-1.073-.475 1.37 1.37 0 0 0-.566.118c-.177.08-.332.19-.466.334a1.963 1.963 0 0 0-.502 1.137h3.04zm3.432 2.74c-.28 0-.556-.056-.826-.165a2.203 2.203 0 0 1-.727-.48 2.353 2.353 0 0 1-.51-.766 2.638 2.638 0 0 1-.193-1.037v-.018c0-.384.064-.728.192-1.032.128-.305.298-.562.511-.772a2.246 2.246 0 0 1 1.553-.653 2.03 2.03 0 0 1 1.494.621c.118.122.224.25.315.384v-2.85h.703v6.667h-.703v-.95a3.528 3.528 0 0 1-.325.402 2.076 2.076 0 0 1-.885.562c-.18.058-.379.087-.599.087zm.128-.63c.22 0 .431-.045.635-.133a1.782 1.782 0 0 0 .931-.95c.095-.222.142-.47.142-.744v-.019a1.88 1.88 0 0 0-.142-.744 1.72 1.72 0 0 0-.382-.57 1.82 1.82 0 0 0-.549-.37 1.586 1.586 0 0 0-.635-.133c-.226 0-.439.041-.644.124-.204.082-.38.2-.53.355a1.717 1.717 0 0 0-.355.572c-.089.224-.133.48-.133.766v.02c0 .28.044.532.133.757.088.225.208.417.36.575a1.603 1.603 0 0 0 1.169.493zm3.413.53V62.92h.703v4.722h-.703zm-.045-5.755v-.776h.804v.776h-.804zm3.171 5.855c-.218 0-.435-.032-.648-.096a1.814 1.814 0 0 1-.566-.28 1.41 1.41 0 0 1-.398-.455c-.1-.183-.15-.396-.15-.64v-.018c0-.256.05-.48.146-.671.097-.191.236-.351.415-.48.18-.127.393-.225.64-.291.246-.068.518-.101.817-.101.305 0 .568.019.79.055.223.036.44.085.654.146v-.147c0-.423-.122-.743-.366-.96-.244-.218-.587-.327-1.032-.327-.28 0-.534.03-.763.092-.228.06-.452.142-.67.246l-.21-.572c.26-.12.525-.216.794-.288.267-.072.575-.108.922-.108.67 0 1.178.174 1.526.52.328.33.493.792.493 1.389v2.886h-.694v-.703a2.085 2.085 0 0 1-.659.556 2.236 2.236 0 0 1-1.041.247zm.143-.566c.218 0 .422-.03.61-.092.188-.06.353-.147.495-.26.143-.113.255-.247.337-.402.082-.155.123-.327.123-.516v-.438a7.101 7.101 0 0 0-.6-.137 4.157 4.157 0 0 0-.774-.064c-.437 0-.775.087-1.015.26a.808.808 0 0 0-.36.69v.019a.82.82 0 0 0 .096.396c.064.119.15.218.26.297.108.079.234.14.377.183.142.043.293.064.451.064z"/></g></svg>