<svg width="960" height="616" xmlns="http://www.w3.org/2000/svg"><path d="M960 610.112c0 3.244-2.392 5.649-5.261 5.649-2.87 0-5.262-2.405-5.262-5.65 0-3.243 2.392-5.648 5.262-5.648 2.87 0 5.261 2.405 5.261 5.649zm-85.262-20.069h13.632l-6.935-34.128-6.697 34.128zm50.225 22.954h4.783c10.164 0 13.154-12.138 14.35-24.996h1.793v27.398h-60.986v-1.682l2.51-.48c5.143-.962 5.263-2.404 3.827-9.615l-2.27-10.816h-14.71l-1.555 8.173c-1.794 9.253-.836 11.537 2.751 12.257l2.51.481v1.682h-16.621v-1.682l2.033-.601c3.228-.962 4.065-2.884 5.74-11.055l14.589-69.941h3.587l15.306 72.223c1.556 7.452 2.154 9.013 6.457 9.013 3.707 0 5.024-1.922 5.024-5.527v-67.777c0-3.365-1.077-4.447-3.468-5.048l-2.63-.72V532.6h23.677v1.802l-3.23.721c-2.39.481-3.467 1.563-3.467 4.928v72.945zm-105.232-78.233l-1.674-.48V532.6h15.665l21.405 54.557v-39.296c0-8.892.238-12.016-6.099-13.098l-2.032-.48V532.6h17.698v1.682l-1.675.481c-5.142 1.201-4.782 5.408-4.782 13.82v66.815h-3.827l-26.787-66.214v50.953c0 9.734 0 12.498 7.653 13.58v1.681h-17.22v-1.682l2.153-.36c4.424-.841 4.305-5.169 4.305-13.94v-57.443c-2.033-4.206-2.87-6.489-4.783-7.21zm-32.407 37.253h3.946c6.696 0 10.045-1.802 10.045-17.785 0-15.984-4.424-19.228-9.208-19.228h-4.783v37.013zm-16.86 41.7l2.629-.72c2.392-.601 3.468-1.804 3.468-5.168v-67.777c0-3.966-1.794-5.408-5.98-5.408-5.26 0-6.576 2.403-6.576 9.253v52.155c0 12.98-4.544 19.948-15.666 19.948-11.48 0-18.175-6.969-18.175-19.587v-56.361c0-3.365-.838-4.447-3.229-5.048l-2.63-.72V532.6H748.1v1.682l-3.23.721c-2.63.601-3.706 1.562-3.706 4.928v57.322c0 11.656 3.347 14.661 9.447 14.661 7.175 0 10.165-4.086 10.165-15.863v-47.829c0-10.094-.12-12.498-4.425-13.459l-2.273-.48V532.6h39.224c10.165 0 19.612 6.49 19.612 20.068 0 10.456-4.903 17.787-14.83 20.43 10.883 2.043 10.883 7.211 11.96 21.03l.716 10.575c.36 5.889.598 7.211 2.273 7.211 1.793 0 2.51-4.086 2.51-8.052v-2.043h2.034v2.764c0 6.61-1.435 11.296-8.251 11.296-6.696 0-9.806-3.846-10.284-17.665l-.598-15.382c-.24-7.33-2.034-8.412-5.5-8.412h-5.621v33.408c0 3.364 1.075 4.687 3.467 5.287l2.632.601v1.682h-22.96v-1.682zm-68.283-78.953c-5.978 0-8.969 4.807-8.969 38.695 0 34.97 2.75 39.897 8.97 39.897 6.217 0 9.087-4.927 9.087-40.137 0-33.648-2.87-38.455-9.088-38.455zm0 81.236c-13.99 0-20.808-18.987-20.808-42.06 0-22.953 6.579-41.94 20.808-41.94 14.111 0 20.927 18.987 20.927 41.94 0 23.073-6.457 42.06-20.927 42.06zm-27.862-19.707c0 12.858-6.459 19.587-16.383 19.587-8.97 0-14.23-7.33-14.11-15.382.12-6.249 4.663-9.373 8.37-8.892 2.63.36 5.262 2.282 4.903 6.489-.36 6.009-6.816 5.768-7.056 9.493-.238 2.284 2.75 5.648 6.577 5.648 6.698 0 6.698-8.532 6.698-15.021v-58.283c0-3.366-1.078-4.327-3.708-4.928l-2.99-.72V532.6h23.559v1.682l-2.632.721c-2.391.601-3.228 1.683-3.228 5.048v56.24zm-65.66 11.536c0 3.725 1.077 4.446 3.467 5.047l3.707.841v1.682H591.2v-1.682l3.11-.72c2.39-.601 3.468-1.804 3.468-5.168v-72.825h-2.632c-7.414 0-10.403 12.137-11.24 24.996h-1.794v-27.4h42.212V560h-1.793c-.838-12.859-3.827-24.996-11.24-24.996h-2.632v72.825zm-53.453 5.168h8.252c10.761 0 12.794-12.259 14.229-24.996h1.794v27.398h-41.255v-1.682l2.63-.72c2.391-.601 3.469-1.804 3.469-5.168v-67.657c0-3.365-1.078-4.567-3.47-5.168l-2.63-.72V532.6h40.06V560h-1.793c-1.316-12.859-3.827-24.996-13.034-24.996h-8.252v36.172l3.827-.12c5.14-.36 7.054-4.807 8.37-15.262h1.795v33.408h-1.795c-1.076-13.099-3.11-15.141-8.49-15.502l-3.707-.12v39.417zm-44.366 0h8.252c10.762 0 12.795-12.259 14.231-24.996h1.793v27.398H493.86v-1.682l2.632-.72c2.39-.601 3.467-1.804 3.467-5.168v-67.657c0-3.365-1.076-4.567-3.467-5.168l-2.632-.72V532.6h40.06V560h-1.793c-1.315-12.859-3.827-24.996-13.035-24.996h-8.252v36.172l3.827-.12c5.142-.36 7.056-4.807 8.372-15.262h1.793v33.408h-1.793c-1.077-13.099-3.11-15.141-8.492-15.502l-3.707-.12v39.417zm-47.951-40.98h3.946c6.696 0 10.045-1.802 10.045-17.785 0-15.984-4.425-19.228-9.208-19.228h-4.783v37.013zm-16.861 41.7l2.63-.72c2.392-.601 3.469-1.804 3.469-5.168v-67.777c0-3.365-1.077-4.447-3.469-5.048l-2.63-.72V532.6h22.839c10.165 0 19.612 6.49 19.612 20.068 0 10.456-4.903 17.787-14.828 20.43 10.882 2.043 10.882 7.211 11.959 21.03l.717 10.575c.359 5.889.598 7.211 2.272 7.211 1.794 0 2.511-4.086 2.511-8.052v-2.043h2.033v2.764c0 6.61-1.436 11.296-8.251 11.296-6.697 0-9.806-3.846-10.285-17.665l-.597-15.382c-.24-7.33-2.033-8.412-5.501-8.412h-5.62v33.408c0 3.364 1.076 4.687 3.468 5.287l2.63.601v1.682h-22.96v-1.682zm-18.297-5.888c0 3.364 1.076 4.567 3.469 5.168l3.109.72v1.682h-24.036v-1.682l3.108-.72c2.393-.601 3.468-1.804 3.468-5.168v-72.825h-2.63c-7.415 0-10.404 12.137-11.241 24.996h-1.793v-27.4h42.212V560h-1.794c-.837-12.859-3.826-24.996-11.24-24.996h-2.632v72.825zm-44.006 8.051c-6.936 0-9.327-4.806-11.599-4.806-1.315 0-2.87.36-4.066 4.325h-1.435v-27.398h1.794c1.435 15.501 7.175 25.235 15.187 25.235 5.381 0 9.088-4.927 9.088-13.819 0-18.747-26.667-26.799-26.667-47.589 0-11.176 5.74-19.708 15.904-19.708 6.577 0 8.013 4.326 10.763 4.326 1.554 0 2.63-1.2 3.229-3.845h1.434V560h-1.793c-1.435-13.82-5.142-25.236-13.752-25.236-5.98 0-7.174 6.008-7.174 10.095 0 17.905 26.666 24.034 26.666 49.029 0 12.74-6.936 21.992-17.579 21.992zm-59.92-2.883h4.784c10.165 0 13.155-12.138 14.35-24.996h1.794v27.398h-37.909v-1.682l2.632-.72c2.391-.601 3.468-1.804 3.468-5.168v-67.777c0-3.365-1.077-4.447-3.468-5.048l-2.632-.72V532.6h23.678v1.802l-3.228.721c-2.392.481-3.468 1.563-3.468 4.928v72.945zm-90.881-22.954h13.632l-6.936-34.128-6.696 34.128zm50.344 22.954h4.783c10.164 0 13.154-12.138 14.35-24.996h1.794v27.398h-61.107v-1.682l2.51-.48c5.143-.962 5.143-2.404 3.828-9.615l-2.272-10.816h-14.709l-1.555 8.173c-1.793 9.253-.837 11.537 2.751 12.257l2.51.481v1.682h-16.62v-1.682l2.032-.601c3.229-.962 4.066-2.884 5.74-11.055l14.589-69.941h3.588l15.306 72.223c1.555 7.452 2.272 9.013 6.577 9.013 3.707 0 5.022-1.922 5.022-5.527v-67.777c0-3.365-1.076-4.447-3.467-5.048l-2.631-.72V532.6h23.678v1.802l-3.23.721c-2.391.481-3.467 1.563-3.467 4.928v72.945zm-116.952-69.34c-1.554-7.09-2.51-8.172-4.783-8.773l-2.272-.6V532.6h22.361v1.682l-1.793.36c-3.827.842-3.468 4.688-2.392 9.856l9.447 47.107 6.936-37.494-2.511-12.86c-.957-4.565-1.316-6.007-3.707-6.608l-1.555-.36V532.6h21.884v1.682l-2.63.481c-3.947.721-3.35 5.047-2.392 9.735l9.088 47.107 8.968-44.585c1.674-9.253.837-11.536-2.75-12.257l-2.512-.48V532.6h16.384v1.682l-2.272.601c-2.87.721-3.588 3.004-5.262 11.055l-14.59 69.941h-3.108l-11.241-54.559-10.165 54.559h-3.946l-15.187-72.224zm-49.843 69.34h8.251c10.762 0 12.796-12.259 14.23-24.996h1.794v27.398H99.492v-1.682l2.63-.72c2.393-.601 3.47-1.804 3.47-5.168v-67.657c0-3.365-1.077-4.567-3.47-5.168l-2.63-.72V532.6h40.06V560h-1.793c-1.316-12.859-3.827-24.996-13.035-24.996h-8.25v36.172l3.825-.12c5.142-.36 7.056-4.807 8.37-15.262h1.795v33.408h-1.794c-1.075-13.099-3.109-15.141-8.49-15.502l-3.707-.12v39.417zm-71.63.72l2.631-.72c2.392-.601 3.468-1.804 3.468-5.168v-67.777c0-3.365-1.076-4.447-3.468-5.048l-2.63-.72V532.6h23.318v1.682l-2.75.721c-2.272.601-3.589 1.562-3.589 4.928v31.604h18.058v-31.604c0-3.366-1.316-4.327-3.587-4.928l-2.751-.72V532.6h23.318v1.682l-2.63.721c-2.392.601-3.468 1.683-3.468 5.048v67.656c0 3.366 1.076 4.688 3.468 5.289l2.63.72v1.682H73.543v-1.682l2.75-.601c2.272-.6 3.588-1.923 3.588-5.287V574.3H61.823v33.528c0 3.364 1.317 4.687 3.589 5.287l2.75.601v1.682H44.844v-1.682zM98.5 358.5v-58h-17v58h-59v17h59v60h17v-60h58v-17h-58zM26.547 607.829c0 3.725 1.076 4.446 3.469 5.047l3.706.841v1.682H9.088v-1.682l3.11-.72c2.391-.601 3.467-1.804 3.467-5.168v-72.825h-2.63C5.62 535.004 2.63 547.141 1.793 560H0v-27.4h42.212V560H40.42c-.837-12.859-3.827-24.996-11.241-24.996h-2.63v72.825zM169.7 0h6.573c1.5 0 2.727 1.252 2.727 2.781V48.22c0 1.53-1.227 2.781-2.727 2.781h-72.545c-1.5 0-2.728-1.252-2.728-2.781V2.78c0-1.529 1.228-2.78 2.728-2.78h6.572c1.5 0 2.728 1.252 2.728 2.781v33.173c0 1.53 1.227 2.781 2.727 2.781h15.504c1.5 0 2.727-1.251 2.727-2.78V2.78c0-1.53 1.228-2.781 2.728-2.781h6.572c1.5 0 2.728 1.252 2.728 2.781v33.173c0 1.53 1.227 2.781 2.727 2.781h15.504c1.5 0 2.727-1.251 2.727-2.78V2.78c0-1.529 1.228-2.78 2.728-2.78zM61.417 98.582h-8.54c-1.42 0-2.583 1.182-2.583 2.627v67.582c0 1.445 1.162 2.627 2.583 2.627h8.54c1.42 0 2.583 1.181 2.583 2.626v6.33c0 1.444-1.162 2.626-2.583 2.626H2.583C1.163 183 0 181.818 0 180.373v-6.329c0-1.445 1.162-2.626 2.583-2.626h8.54c1.42 0 2.583-1.182 2.583-2.627v-67.582c0-1.445-1.162-2.627-2.583-2.627h-8.54C1.163 98.582 0 97.4 0 95.956v-6.33C0 88.183 1.162 87 2.583 87h58.834C62.837 87 64 88.182 64 89.627v6.329c0 1.444-1.162 2.626-2.583 2.626zm-22.513 70.209v-67.582c0-1.445-1.162-2.627-2.582-2.627h-8.644c-1.42 0-2.583 1.182-2.583 2.627v67.582c0 1.445 1.163 2.627 2.583 2.627h8.644c1.42 0 2.582-1.182 2.582-2.627zm109.837-56.278h27.531c1.5 0 2.728 1.187 2.728 2.637v65.213c0 1.45-1.228 2.637-2.728 2.637H169.7c-1.5 0-2.728-1.186-2.728-2.637v-53.586c0-1.45-1.227-2.637-2.727-2.637h-4.508c-1.5 0-2.728 1.187-2.728 2.637v53.586c0 1.45-1.227 2.637-2.727 2.637h-6.573c-1.5 0-2.728-1.186-2.728-2.637v-53.586c0-1.45-1.227-2.637-2.727-2.637h-4.508c-1.5 0-2.728 1.187-2.728 2.637v53.586c0 1.45-1.227 2.637-2.727 2.637h-6.573c-1.5 0-2.727-1.186-2.727-2.637v-53.586c0-1.45-1.228-2.637-2.728-2.637h-4.508c-1.5 0-2.727 1.187-2.727 2.637v53.586c0 1.45-1.228 2.637-2.728 2.637h-6.573c-1.5 0-2.727-1.186-2.727-2.637V115.15c0-1.45 1.227-2.637 2.727-2.637h27.532c1.5 0 2.727-1.187 2.727-2.637v-8.612c0-1.45-1.227-2.637-2.727-2.637h-27.436c-1.5 0-2.728-1.186-2.728-2.637v-6.353c0-1.45 1.227-2.637 2.728-2.637h72.354c1.5 0 2.728 1.187 2.728 2.637v6.353c0 1.45-1.227 2.637-2.728 2.637h-27.436c-1.5 0-2.727 1.187-2.727 2.637v8.612c0 1.45 1.227 2.637 2.727 2.637zM59 27.5C59 42.688 46.688 55 31.5 55S4 42.688 4 27.5 16.312 0 31.5 0 59 12.312 59 27.5z" fill="#FFF" fill-rule="evenodd"/></svg>