<svg width="360" height="288" viewBox="0 0 360 288" xmlns="http://www.w3.org/2000/svg"><title>Combined Shape</title><path d="M47.348 167.081V134h-9.696v33.081H4v9.697h33.652V211h9.696v-34.222H80.43v-9.697H47.348zM76.31 0h2.84c.648 0 1.178.54 1.178 1.202V20.83c0 .661-.53 1.202-1.178 1.202H47.81c-.648 0-1.178-.54-1.178-1.202V1.202C46.632.54 47.162 0 47.81 0h2.84c.648 0 1.178.54 1.178 1.202v14.33c0 .661.53 1.202 1.178 1.202h6.698c.648 0 1.178-.541 1.178-1.202V1.202C60.882.54 61.412 0 62.06 0h2.84c.648 0 1.178.54 1.178 1.202v14.33c0 .661.53 1.202 1.178 1.202h6.698c.648 0 1.178-.541 1.178-1.202V1.202C75.132.54 75.662 0 76.31 0zM29.532 42.588h-3.69c-.613 0-1.115.51-1.115 1.134v29.196c0 .624.502 1.134 1.116 1.134h3.69c.613 0 1.115.51 1.115 1.135v2.734c0 .624-.502 1.135-1.116 1.135H4.116c-.614 0-1.116-.51-1.116-1.135v-2.734c0-.624.502-1.135 1.116-1.135h3.69c.613 0 1.115-.51 1.115-1.134V43.722c0-.624-.502-1.134-1.116-1.134h-3.69A1.129 1.129 0 0 1 3 41.453v-2.734c0-.624.502-1.135 1.116-1.135h25.416c.614 0 1.116.51 1.116 1.135v2.734c0 .624-.502 1.135-1.116 1.135zm-9.725 30.33V43.722c0-.624-.502-1.134-1.116-1.134h-3.734c-.614 0-1.116.51-1.116 1.134v29.196c0 .624.502 1.134 1.116 1.134h3.734c.614 0 1.116-.51 1.116-1.134zm47.45-24.312H79.15c.648 0 1.178.512 1.178 1.139v28.172c0 .626-.53 1.139-1.178 1.139h-2.84c-.648 0-1.178-.513-1.178-1.14V54.768c0-.626-.53-1.139-1.178-1.139h-1.948c-.648 0-1.178.513-1.178 1.14v23.149c0 .626-.53 1.139-1.178 1.139h-2.84c-.648 0-1.178-.513-1.178-1.14V54.768c0-.626-.53-1.139-1.178-1.139h-1.948c-.648 0-1.178.513-1.178 1.14v23.149c0 .626-.53 1.139-1.178 1.139h-2.84c-.648 0-1.178-.513-1.178-1.14V54.768c0-.626-.53-1.139-1.178-1.139h-1.948c-.648 0-1.178.513-1.178 1.14v23.149c0 .626-.53 1.139-1.178 1.139h-2.84c-.648 0-1.178-.513-1.178-1.14V49.746c0-.627.53-1.14 1.178-1.14h11.894c.648 0 1.178-.512 1.178-1.139v-3.72c0-.627-.53-1.14-1.178-1.14H47.85c-.648 0-1.178-.512-1.178-1.138v-2.745c0-.626.53-1.14 1.178-1.14h31.257c.649 0 1.179.514 1.179 1.14v2.745c0 .626-.53 1.139-1.179 1.139H67.256c-.648 0-1.178.512-1.178 1.139v3.72c0 .627.53 1.14 1.178 1.14zM28.487 11.88c0 6.561-5.319 11.88-11.88 11.88-6.561 0-11.88-5.319-11.88-11.88C4.728 5.319 10.047 0 16.608 0s11.88 5.319 11.88 11.88zM360 285.292c0 1.217-.897 2.118-1.973 2.118s-1.973-.901-1.973-2.118c0-1.217.897-2.118 1.973-2.118s1.973.901 1.973 2.118zm-13.139 1.082h1.794c3.811 0 4.932-4.552 5.381-9.374h.673v10.275h-22.87v-.631l.941-.18c1.928-.36 1.973-.902 1.435-3.606l-.852-4.056h-5.515l-.584 3.065c-.672 3.47-.313 4.326 1.032 4.597l.941.18v.63h-6.233v-.63l.763-.226c1.21-.36 1.524-1.081 2.152-4.145l5.471-26.228h1.345l5.74 27.084c.584 2.794.808 3.38 2.422 3.38 1.39 0 1.883-.721 1.883-2.073v-25.417c0-1.261-.404-1.667-1.3-1.892l-.987-.27v-.632h8.88v.676l-1.212.27c-.896.18-1.3.587-1.3 1.848v27.355zm-18.834-8.608h5.112l-2.6-12.798-2.512 12.798zm-20.628-20.73l-.628-.18v-.63h5.875l8.027 20.458v-14.736c0-3.334.089-4.506-2.288-4.911l-.762-.18v-.632h6.637v.631l-.628.18c-1.928.45-1.793 2.028-1.793 5.183v25.056h-1.435l-10.045-24.83v19.107c0 3.65 0 4.686 2.87 5.092v.63h-6.458v-.63l.807-.135c1.66-.316 1.615-1.938 1.615-5.228v-21.54c-.763-1.578-1.077-2.434-1.794-2.704zm-18.475 29.608l.986-.27c.897-.226 1.3-.677 1.3-1.938v-25.417c0-1.487-.672-2.028-2.242-2.028-1.973 0-2.466.902-2.466 3.47v19.558c0 4.868-1.704 7.481-5.875 7.481-4.305 0-6.815-2.613-6.815-7.345v-21.136c0-1.261-.315-1.667-1.211-1.892l-.987-.27v-.632h8.924v.631l-1.211.27c-.986.226-1.39.586-1.39 1.848v21.496c0 4.371 1.255 5.498 3.542 5.498 2.691 0 3.812-1.532 3.812-5.949v-17.935c0-3.786-.044-4.687-1.659-5.047l-.852-.18v-.632h14.709c3.811 0 7.354 2.434 7.354 7.526 0 3.92-1.839 6.67-5.561 7.661 4.081.766 4.081 2.704 4.485 7.886l.269 3.966c.134 2.208.224 2.704.852 2.704.672 0 .941-1.532.941-3.02v-.766h.763v1.037c0 2.478-.538 4.236-3.094 4.236-2.511 0-3.678-1.442-3.857-6.624l-.224-5.769c-.09-2.749-.763-3.154-2.063-3.154h-2.108v12.528c0 1.261.404 1.757 1.3 1.982l.988.226v.63h-8.61v-.63zm6.322-15.638h1.48c2.511 0 3.767-.675 3.767-6.669s-1.659-7.21-3.453-7.21h-1.794v13.88zM263.318 287.5c-5.246 0-7.803-7.12-7.803-15.772 0-8.608 2.467-15.728 7.803-15.728 5.291 0 7.847 7.12 7.847 15.728 0 8.652-2.42 15.772-7.847 15.772zm0-30.463c-2.242 0-3.363 1.802-3.363 14.51 0 13.114 1.031 14.962 3.363 14.962s3.408-1.848 3.408-15.052c0-12.618-1.076-14.42-3.408-14.42zm-10.449 23.073c0 4.822-2.421 7.345-6.143 7.345-3.363 0-5.336-2.749-5.291-5.768.045-2.344 1.748-3.515 3.138-3.335.987.135 1.974.856 1.84 2.434-.136 2.253-2.557 2.162-2.647 3.56-.09.856 1.032 2.118 2.466 2.118 2.512 0 2.512-3.2 2.512-5.633v-21.857c0-1.262-.404-1.622-1.39-1.847l-1.122-.27v-.632h8.835v.631l-.987.27c-.897.226-1.21.632-1.21 1.893v21.09zm-24.622 4.326c0 1.397.404 1.667 1.3 1.893l1.39.315v.63H221.7v-.63l1.166-.27c.896-.226 1.3-.677 1.3-1.938v-27.31h-.986c-2.78 0-3.902 4.552-4.215 9.374h-.673v-10.275h15.83V266.5h-.673c-.314-4.822-1.435-9.373-4.215-9.373h-.987v27.309zm-20.045 1.938h3.095c4.035 0 4.798-4.597 5.336-9.374h.672v10.275h-15.47v-.631l.986-.27c.897-.226 1.3-.677 1.3-1.938v-25.372c0-1.261-.403-1.712-1.3-1.937l-.986-.27v-.632h15.022V266.5h-.673c-.493-4.822-1.434-9.373-4.887-9.373h-3.095v13.564l1.435-.045c1.928-.135 2.646-1.802 3.14-5.723h.672v12.528h-.673c-.404-4.912-1.166-5.678-3.184-5.813l-1.39-.046v14.782zm-16.637 0h3.095c4.035 0 4.798-4.597 5.336-9.374h.672v10.275h-15.47v-.631l.987-.27c.896-.226 1.3-.677 1.3-1.938v-25.372c0-1.261-.404-1.712-1.3-1.937l-.987-.27v-.632h15.022V266.5h-.673c-.492-4.822-1.435-9.373-4.887-9.373h-3.095v13.564l1.435-.045c1.929-.135 2.646-1.802 3.14-5.723h.672v12.528h-.672c-.404-4.912-1.166-5.678-3.185-5.813l-1.39-.046v14.782zm-24.305.27l.987-.27c.897-.226 1.3-.677 1.3-1.938v-25.417c0-1.261-.403-1.667-1.3-1.892l-.987-.27v-.632h8.565c3.812 0 7.355 2.434 7.355 7.526 0 3.92-1.839 6.67-5.561 7.661 4.08.766 4.08 2.704 4.485 7.886l.268 3.966c.135 2.208.225 2.704.853 2.704.672 0 .941-1.532.941-3.02v-.766h.763v1.037c0 2.478-.539 4.236-3.095 4.236-2.51 0-3.677-1.442-3.856-6.624l-.224-5.769c-.09-2.749-.763-3.154-2.063-3.154h-2.108v12.528c0 1.261.404 1.757 1.3 1.982l.987.226v.63h-8.61v-.63zm6.323-15.638h1.48c2.511 0 3.767-.675 3.767-6.669s-1.66-7.21-3.453-7.21h-1.794v13.88zm-13.184 13.43c0 1.261.404 1.712 1.3 1.938l1.167.27v.63h-9.014v-.63l1.166-.27c.897-.226 1.3-.677 1.3-1.938v-27.31h-.986c-2.78 0-3.901 4.552-4.215 9.374h-.673v-10.275h15.83V266.5h-.673c-.314-4.822-1.435-9.373-4.215-9.373h-.987v27.309zm-16.502 3.019c-2.601 0-3.498-1.802-4.35-1.802-.493 0-1.076.135-1.525 1.622h-.538V277h.673c.538 5.813 2.69 9.464 5.695 9.464 2.018 0 3.408-1.848 3.408-5.183 0-7.03-10-10.05-10-17.845 0-4.191 2.153-7.391 5.964-7.391 2.467 0 3.005 1.622 4.036 1.622.583 0 .987-.45 1.211-1.442h.538V266.5h-.673c-.538-5.182-1.928-9.463-5.157-9.463-2.242 0-2.69 2.253-2.69 3.785 0 6.715 10 9.013 10 18.386 0 4.777-2.6 8.247-6.592 8.247zm-22.47-1.081h1.794c3.812 0 4.933-4.552 5.381-9.374h.673v10.275h-14.216v-.631l.987-.27c.897-.226 1.3-.677 1.3-1.938v-25.417c0-1.261-.403-1.667-1.3-1.892l-.987-.27v-.632h8.88v.676l-1.211.27c-.897.18-1.3.587-1.3 1.848v27.355zm-15.202 0h1.794c3.812 0 4.933-4.552 5.381-9.374h.673v10.275H91.158v-.631l.941-.18c1.929-.36 1.929-.902 1.436-3.606l-.852-4.056h-5.516l-.583 3.065c-.673 3.47-.314 4.326 1.031 4.597l.942.18v.63h-6.233v-.63l.762-.226c1.21-.36 1.525-1.081 2.153-4.145l5.47-26.228h1.346l5.74 27.084c.583 2.794.852 3.38 2.466 3.38 1.39 0 1.883-.721 1.883-2.073v-25.417c0-1.261-.403-1.667-1.3-1.892l-.986-.27v-.632h8.879v.676l-1.211.27c-.897.18-1.3.587-1.3 1.848v27.355zm-18.879-8.608h5.112l-2.6-12.798-2.512 12.798zM62.37 260.371c-.583-2.659-.942-3.064-1.794-3.29l-.852-.225v-.63h8.385v.63l-.672.135c-1.435.316-1.3 1.758-.897 3.696l3.543 17.665 2.6-14.06-.941-4.822c-.359-1.712-.493-2.253-1.39-2.479l-.583-.135v-.63h8.206v.63l-.986.18c-1.48.27-1.256 1.893-.897 3.65l3.408 17.666 3.363-16.719c.628-3.47.314-4.326-1.031-4.596l-.942-.18v-.632h6.144v.631l-.853.226c-1.076.27-1.345 1.126-1.973 4.145l-5.47 26.228H77.57l-4.216-20.46-3.812 20.46h-1.48l-5.694-27.084zm-18.692 26.003h3.095c4.035 0 4.798-4.597 5.336-9.374h.673v10.275H37.31v-.631l.986-.27c.897-.226 1.3-.677 1.3-1.938v-25.372c0-1.261-.403-1.712-1.3-1.937l-.986-.27v-.632h15.022V266.5h-.672c-.494-4.822-1.435-9.373-4.888-9.373h-3.095v13.564l1.435-.045c1.929-.135 2.646-1.802 3.14-5.723h.672v12.528h-.673c-.403-4.912-1.166-5.678-3.183-5.813l-1.39-.046v14.782zm-26.86.27l.986-.27c.897-.226 1.3-.677 1.3-1.938v-25.417c0-1.261-.403-1.667-1.3-1.892l-.987-.27v-.632h8.745v.631l-1.032.27c-.852.226-1.345.586-1.345 1.848v11.852h6.771v-11.852c0-1.262-.493-1.622-1.345-1.847l-1.031-.27v-.632h8.744v.631l-.987.27c-.896.226-1.3.632-1.3 1.893v25.372c0 1.262.404 1.757 1.3 1.983l.987.27v.63H27.58v-.63l1.031-.226c.852-.225 1.345-.72 1.345-1.982v-12.573h-6.771v12.573c0 1.261.493 1.757 1.345 1.982l1.032.226v.63h-8.745v-.63zm-6.862-2.208c0 1.397.404 1.667 1.3 1.893l1.39.315v.63H3.409v-.63l1.166-.27c.897-.226 1.3-.677 1.3-1.938v-27.31h-.986c-2.78 0-3.901 4.552-4.215 9.374H0v-10.275h15.83V266.5h-.673c-.314-4.822-1.435-9.373-4.215-9.373h-.987v27.309z" fill="#182229" fill-rule="evenodd"/></svg>