<svg width="190" height="190" xmlns="http://www.w3.org/2000/svg"><g fill="none" fill-rule="evenodd"><path d="M95 185.087c-49.754 0-90.087-40.333-90.087-90.087C4.913 45.246 45.246 4.913 95 4.913c49.754 0 90.087 40.333 90.087 90.087 0 49.754-40.333 90.087-90.087 90.087M95 0C42.533 0 0 42.533 0 95s42.533 95 95 95 95-42.533 95-95S147.467 0 95 0" fill="#2BB5C8"/><path d="M89.662 12a.983.983 0 0 0-.98.982V24.69c0 .54-.44.981-.979.981h-5.565a.983.983 0 0 1-.98-.981V12.982c0-.54-.44-.982-.978-.982h-2.36a.983.983 0 0 0-.979.982V24.69c0 .54-.44.981-.979.981h-5.565a.983.983 0 0 1-.98-.981V12.982c0-.54-.44-.982-.978-.982h-2.36a.983.983 0 0 0-.979.982v16.036c0 .54.44.982.98.982h26.04c.54 0 .98-.442.98-.982V12.982c0-.54-.44-.982-.98-.982h-2.358zM42.59 73.672a.98.98 0 0 1-.97.985h-3.24a.98.98 0 0 1-.97-.985V48.328a.98.98 0 0 1 .97-.985h3.24a.98.98 0 0 1 .97.985v25.344zm8.441-26.329a.98.98 0 0 0 .969-.985v-2.373a.98.98 0 0 0-.969-.985H28.97a.98.98 0 0 0-.969.985v2.373a.98.98 0 0 0 .969.985h3.202a.98.98 0 0 1 .969.985v25.344a.98.98 0 0 1-.969.985H28.97a.98.98 0 0 0-.969.985v2.373a.98.98 0 0 0 .969.985h22.06a.98.98 0 0 0 .969-.985v-2.373a.98.98 0 0 0-.969-.985h-3.2a.98.98 0 0 1-.969-.985V48.328a.98.98 0 0 1 .969-.985h3.202zm40.989 4.959h-9.882a.973.973 0 0 1-.98-.962V48.2c0-.528.441-.961.98-.961h9.849a.974.974 0 0 0 .979-.961V43.96a.973.973 0 0 0-.98-.961H66.014a.973.973 0 0 0-.979.961v2.317c0 .528.44.961.98.961h9.848c.539 0 .98.433.98.961v3.14a.974.974 0 0 1-.98.962H65.98a.973.973 0 0 0-.979.961v23.776c0 .528.44.961.98.961h2.358c.539 0 .98-.433.98-.961V57.502c0-.529.44-.961.979-.961h1.618c.539 0 .98.432.98.961v19.537c0 .528.44.961.978.961h2.36a.974.974 0 0 0 .979-.961V57.502c0-.529.44-.961.979-.961h1.618c.539 0 .98.432.98.961v19.537c0 .528.44.961.978.961h2.36a.974.974 0 0 0 .979-.961V57.502c0-.529.44-.961.979-.961h1.618c.539 0 .98.432.98.961v19.537c0 .528.44.961.978.961h2.36a.974.974 0 0 0 .979-.961V53.263a.973.973 0 0 0-.98-.961M50 22c0-5.523-4.477-10-10-10s-10 4.477-10 10 4.477 10 10 10 10-4.477 10-10" fill="#FFF"/></g></svg>