<svg width="179" height="183" xmlns="http://www.w3.org/2000/svg"><path d="M169.7 0h6.573c1.5 0 2.727 1.252 2.727 2.781V48.22c0 1.53-1.227 2.781-2.727 2.781h-72.545c-1.5 0-2.728-1.252-2.728-2.781V2.78c0-1.529 1.228-2.78 2.728-2.78h6.572c1.5 0 2.728 1.252 2.728 2.781v33.173c0 1.53 1.227 2.781 2.727 2.781h15.504c1.5 0 2.727-1.251 2.727-2.78V2.78c0-1.53 1.228-2.781 2.728-2.781h6.572c1.5 0 2.728 1.252 2.728 2.781v33.173c0 1.53 1.227 2.781 2.727 2.781h15.504c1.5 0 2.727-1.251 2.727-2.78V2.78c0-1.529 1.228-2.78 2.728-2.78zM61.417 98.582h-8.54c-1.42 0-2.583 1.182-2.583 2.627v67.582c0 1.445 1.162 2.627 2.583 2.627h8.54c1.42 0 2.583 1.181 2.583 2.626v6.33c0 1.444-1.162 2.626-2.583 2.626H2.583C1.163 183 0 181.818 0 180.373v-6.329c0-1.445 1.162-2.626 2.583-2.626h8.54c1.42 0 2.583-1.182 2.583-2.627v-67.582c0-1.445-1.162-2.627-2.583-2.627h-8.54C1.163 98.582 0 97.4 0 95.956v-6.33C0 88.183 1.162 87 2.583 87h58.834C62.837 87 64 88.182 64 89.627v6.329c0 1.444-1.162 2.626-2.583 2.626zm-22.513 70.209v-67.582c0-1.445-1.162-2.627-2.582-2.627h-8.644c-1.42 0-2.583 1.182-2.583 2.627v67.582c0 1.445 1.163 2.627 2.583 2.627h8.644c1.42 0 2.582-1.182 2.582-2.627zm109.837-56.278h27.531c1.5 0 2.728 1.187 2.728 2.637v65.213c0 1.45-1.228 2.637-2.728 2.637H169.7c-1.5 0-2.728-1.186-2.728-2.637v-53.586c0-1.45-1.227-2.637-2.727-2.637h-4.508c-1.5 0-2.728 1.187-2.728 2.637v53.586c0 1.45-1.227 2.637-2.727 2.637h-6.573c-1.5 0-2.728-1.186-2.728-2.637v-53.586c0-1.45-1.227-2.637-2.727-2.637h-4.508c-1.5 0-2.728 1.187-2.728 2.637v53.586c0 1.45-1.227 2.637-2.727 2.637h-6.573c-1.5 0-2.727-1.186-2.727-2.637v-53.586c0-1.45-1.228-2.637-2.728-2.637h-4.508c-1.5 0-2.727 1.187-2.727 2.637v53.586c0 1.45-1.228 2.637-2.728 2.637h-6.573c-1.5 0-2.727-1.186-2.727-2.637V115.15c0-1.45 1.227-2.637 2.727-2.637h27.532c1.5 0 2.727-1.187 2.727-2.637v-8.612c0-1.45-1.227-2.637-2.727-2.637h-27.436c-1.5 0-2.728-1.186-2.728-2.637v-6.353c0-1.45 1.227-2.637 2.728-2.637h72.354c1.5 0 2.728 1.187 2.728 2.637v6.353c0 1.45-1.227 2.637-2.728 2.637h-27.436c-1.5 0-2.727 1.187-2.727 2.637v8.612c0 1.45 1.227 2.637 2.727 2.637zM59 27.5C59 42.688 46.688 55 31.5 55S4 42.688 4 27.5 16.312 0 31.5 0 59 12.312 59 27.5z" fill="#FFF" fill-rule="evenodd"/></svg>