<svg width="960" height="84" xmlns="http://www.w3.org/2000/svg"><path d="M960 78.112c0 3.244-2.392 5.649-5.261 5.649-2.87 0-5.262-2.405-5.262-5.65 0-3.243 2.392-5.648 5.262-5.648 2.87 0 5.261 2.405 5.261 5.649zm-85.262-20.069h13.632l-6.935-34.128-6.697 34.128zm50.225 22.954h4.783c10.164 0 13.154-12.138 14.35-24.996h1.793v27.398h-60.986v-1.682l2.51-.48c5.143-.962 5.263-2.404 3.827-9.615l-2.27-10.816h-14.71l-1.555 8.173c-1.794 9.253-.836 11.537 2.751 12.257l2.51.481V83.4h-16.621v-1.682l2.033-.601c3.228-.962 4.065-2.884 5.74-11.055L883.706.12h3.587L902.6 72.343c1.556 7.452 2.154 9.013 6.457 9.013 3.707 0 5.024-1.922 5.024-5.527V8.052c0-3.365-1.077-4.447-3.468-5.048l-2.63-.72V.6h23.677v1.802l-3.23.721c-2.39.481-3.467 1.563-3.467 4.928v72.945zM819.731 2.764l-1.674-.48V.6h15.665l21.405 54.557V15.862c0-8.892.238-12.016-6.099-13.098l-2.032-.48V.6h17.698v1.682l-1.675.481c-5.142 1.201-4.782 5.408-4.782 13.82v66.815h-3.827l-26.787-66.214v50.953c0 9.734 0 12.498 7.653 13.58v1.681h-17.22v-1.682l2.153-.36c4.424-.841 4.305-5.169 4.305-13.94V9.974c-2.033-4.206-2.87-6.489-4.783-7.21zm-32.407 37.253h3.946c6.696 0 10.045-1.802 10.045-17.785 0-15.984-4.424-19.228-9.208-19.228h-4.783v37.013zm-16.86 41.7l2.629-.72c2.392-.601 3.468-1.804 3.468-5.168V8.052c0-3.966-1.794-5.408-5.98-5.408-5.26 0-6.576 2.403-6.576 9.253v52.155c0 12.98-4.544 19.948-15.666 19.948-11.48 0-18.175-6.969-18.175-19.587V8.052c0-3.365-.838-4.447-3.229-5.048l-2.63-.72V.6H748.1v1.682l-3.23.721c-2.63.601-3.706 1.562-3.706 4.928v57.322c0 11.656 3.347 14.661 9.447 14.661 7.175 0 10.165-4.086 10.165-15.863V16.223c0-10.094-.12-12.498-4.425-13.459l-2.273-.48V.6h39.224c10.165 0 19.612 6.49 19.612 20.068 0 10.456-4.903 17.787-14.83 20.43 10.883 2.043 10.883 7.211 11.96 21.03l.716 10.575c.36 5.889.598 7.211 2.273 7.211 1.793 0 2.51-4.086 2.51-8.052V69.82h2.034v2.764c0 6.61-1.435 11.296-8.251 11.296-6.696 0-9.806-3.846-10.284-17.665l-.598-15.382c-.24-7.33-2.034-8.412-5.5-8.412h-5.621v33.408c0 3.364 1.075 4.687 3.467 5.287l2.632.601V83.4h-22.96v-1.682zM702.18 2.764c-5.978 0-8.969 4.807-8.969 38.695 0 34.97 2.75 39.897 8.97 39.897 6.217 0 9.087-4.927 9.087-40.137 0-33.648-2.87-38.455-9.088-38.455zm0 81.236c-13.99 0-20.808-18.987-20.808-42.06 0-22.953 6.579-41.94 20.808-41.94 14.111 0 20.927 18.987 20.927 41.94 0 23.073-6.457 42.06-20.927 42.06zm-27.86-19.707c0 12.858-6.459 19.587-16.383 19.587-8.97 0-14.23-7.33-14.11-15.382.12-6.249 4.663-9.373 8.37-8.892 2.63.36 5.262 2.282 4.903 6.489-.36 6.009-6.816 5.768-7.056 9.493-.238 2.284 2.75 5.648 6.577 5.648 6.698 0 6.698-8.532 6.698-15.021V7.932c0-3.366-1.078-4.327-3.708-4.928l-2.99-.72V.6h23.559v1.682l-2.632.721c-2.391.601-3.228 1.683-3.228 5.048v56.24zm-65.66 11.536c0 3.725 1.077 4.446 3.467 5.047l3.707.841V83.4H591.2v-1.682l3.11-.72c2.39-.601 3.468-1.804 3.468-5.168V3.004h-2.632c-7.414 0-10.403 12.137-11.24 24.996h-1.794V.6h42.212V28h-1.793c-.838-12.859-3.827-24.996-11.24-24.996h-2.632V75.83zm-53.453 5.168h8.252c10.761 0 12.794-12.259 14.229-24.996h1.794v27.398h-41.255v-1.682l2.63-.72c2.391-.601 3.469-1.804 3.469-5.168V8.172c0-3.365-1.078-4.567-3.47-5.168l-2.63-.72V.6h40.06V28h-1.793c-1.316-12.859-3.827-24.996-13.034-24.996h-8.252v36.172l3.827-.12c5.14-.36 7.054-4.807 8.37-15.262h1.795v33.408h-1.795c-1.076-13.099-3.11-15.141-8.49-15.502l-3.707-.12v39.417zm-44.366 0h8.252c10.762 0 12.795-12.259 14.231-24.996h1.793v27.398H493.86v-1.682l2.632-.72c2.39-.601 3.467-1.804 3.467-5.168V8.172c0-3.365-1.076-4.567-3.467-5.168l-2.632-.72V.6h40.06V28h-1.793c-1.315-12.86-3.827-24.996-13.035-24.996h-8.252v36.172l3.827-.12c5.142-.36 7.056-4.807 8.372-15.262h1.793v33.408h-1.793c-1.077-13.099-3.11-15.141-8.492-15.502l-3.707-.12v39.417zm-47.951-40.98h3.946c6.696 0 10.045-1.802 10.045-17.785 0-15.984-4.425-19.228-9.208-19.228h-4.783v37.013zm-16.861 41.7l2.63-.72c2.392-.601 3.469-1.804 3.469-5.168V8.052c0-3.365-1.077-4.447-3.469-5.048l-2.63-.72V.6h22.839c10.165 0 19.612 6.49 19.612 20.068 0 10.456-4.903 17.787-14.828 20.43 10.882 2.043 10.882 7.211 11.959 21.03l.717 10.575c.359 5.889.598 7.211 2.272 7.211 1.794 0 2.511-4.086 2.511-8.052V69.82h2.033v2.764c0 6.61-1.436 11.296-8.251 11.296-6.697 0-9.806-3.846-10.285-17.665l-.597-15.382c-.24-7.33-2.033-8.412-5.501-8.412h-5.62v33.408c0 3.364 1.076 4.687 3.468 5.287l2.63.601V83.4h-22.96v-1.682zM427.73 75.83c0 3.364 1.076 4.567 3.469 5.168l3.109.72V83.4h-24.036v-1.682l3.108-.72c2.393-.601 3.468-1.804 3.468-5.168V3.004h-2.63c-7.415 0-10.404 12.137-11.241 24.996h-1.793V.6h42.212V28h-1.794c-.837-12.859-3.826-24.996-11.24-24.996h-2.632V75.83zm-44.006 8.051c-6.936 0-9.327-4.806-11.599-4.806-1.315 0-2.87.36-4.066 4.325h-1.435V56.001h1.794c1.435 15.501 7.175 25.235 15.187 25.235 5.381 0 9.088-4.927 9.088-13.819 0-18.747-26.667-26.799-26.667-47.589 0-11.176 5.74-19.708 15.904-19.708 6.577 0 8.013 4.326 10.763 4.326 1.554 0 2.63-1.2 3.229-3.845h1.434V28h-1.793c-1.435-13.82-5.142-25.236-13.752-25.236-5.98 0-7.174 6.008-7.174 10.095 0 17.905 26.666 24.034 26.666 49.029 0 12.74-6.936 21.992-17.579 21.992zm-59.92-2.883h4.784c10.165 0 13.155-12.138 14.35-24.996h1.794V83.4h-37.909v-1.682l2.632-.72c2.391-.601 3.468-1.804 3.468-5.168V8.052c0-3.365-1.077-4.447-3.468-5.048l-2.632-.72V.6h23.678v1.802l-3.228.721c-2.392.481-3.468 1.563-3.468 4.928v72.945zm-90.881-22.954h13.632l-6.936-34.128-6.696 34.128zm50.344 22.954h4.783c10.164 0 13.154-12.138 14.35-24.996h1.794V83.4h-61.107v-1.682l2.51-.48c5.143-.962 5.143-2.404 3.828-9.615l-2.272-10.816h-14.709l-1.555 8.173c-1.793 9.253-.837 11.537 2.751 12.257l2.51.481V83.4h-16.62v-1.682l2.032-.601c3.229-.962 4.066-2.884 5.74-11.055L241.892.12h3.588l15.306 72.223c1.555 7.452 2.272 9.013 6.577 9.013 3.707 0 5.022-1.922 5.022-5.527V8.052c0-3.365-1.076-4.447-3.467-5.048l-2.631-.72V.6h23.678v1.802l-3.23.721c-2.391.481-3.467 1.563-3.467 4.928v72.945zm-116.952-69.34c-1.554-7.09-2.51-8.172-4.783-8.773l-2.272-.6V.6h22.361v1.682l-1.793.36c-3.827.842-3.468 4.688-2.392 9.856l9.447 47.107 6.936-37.494-2.511-12.86c-.957-4.565-1.316-6.007-3.707-6.608l-1.555-.36V.6h21.884v1.682l-2.63.481c-3.947.721-3.35 5.047-2.392 9.735l9.088 47.107 8.968-44.585c1.674-9.253.837-11.536-2.75-12.257l-2.512-.48V.6h16.384v1.682l-2.272.601c-2.87.721-3.588 3.004-5.262 11.055l-14.59 69.941h-3.108L195.613 29.32l-10.165 54.559h-3.946l-15.187-72.224zm-49.843 69.34h8.251c10.762 0 12.796-12.259 14.23-24.996h1.794V83.4H99.492v-1.682l2.63-.72c2.393-.601 3.47-1.804 3.47-5.168V8.172c0-3.365-1.077-4.567-3.47-5.168l-2.63-.72V.6h40.06V28h-1.793c-1.316-12.859-3.827-24.996-13.035-24.996h-8.25v36.172l3.825-.12c5.142-.36 7.056-4.807 8.37-15.262h1.795v33.408h-1.794c-1.075-13.099-3.109-15.141-8.49-15.502l-3.707-.12v39.417zm-71.63.72l2.631-.72c2.392-.601 3.468-1.804 3.468-5.168V8.052c0-3.365-1.076-4.447-3.468-5.048l-2.63-.72V.6h23.318v1.682l-2.75.721c-2.272.601-3.589 1.562-3.589 4.928v31.604H79.88V7.932c0-3.366-1.316-4.327-3.587-4.928l-2.751-.72V.6H96.86v1.682l-2.63.721c-2.392.601-3.468 1.683-3.468 5.048v67.656c0 3.366 1.076 4.688 3.468 5.289l2.63.72V83.4H73.543v-1.682l2.75-.601c2.272-.6 3.588-1.923 3.588-5.287V42.3H61.823v33.53c0 3.364 1.317 4.687 3.589 5.287l2.75.601V83.4H44.844v-1.682zM26.548 75.83c0 3.725 1.076 4.446 3.469 5.047l3.706.841V83.4H9.088v-1.682l3.11-.72c2.391-.601 3.467-1.804 3.467-5.168V3.004h-2.63C5.62 3.004 2.63 15.141 1.793 28H0V.6h42.212V28H40.42c-.838-12.86-3.828-24.996-11.242-24.996h-2.63V75.83z" fill="#FFF" fill-rule="evenodd"/></svg>